<svg width="832" height="200" xmlns="http://www.w3.org/2000/svg" xmlns:xlink="http://www.w3.org/1999/xlink" overflow="hidden"><defs><clipPath id="clip0"><rect x="0" y="0" width="832" height="200"/></clipPath></defs><g clip-path="url(#clip0)"><rect x="0" y="0" width="830.117" height="199.547" fill="#FFFFFF" transform="scale(1.00227 1)"/><path d="M0 13.8024C-3.31853e-15 6.17953 6.17953-4.9778e-15 13.8024-3.31853e-15L194.724 0C202.347-3.31853e-15 208.527 6.17953 208.527 13.8024L208.527 69.0098C208.527 76.6326 202.347 82.8121 194.724 82.8121L13.8024 82.8121C6.17953 82.8121-1.65927e-15 76.6326-1.65927e-15 69.0098Z" fill="#AAD8FF" fill-rule="evenodd" transform="matrix(1.00227 0 -0 1 21 16.9615)"/><text font-family="Calibri,Calibri_MSFontService,sans-serif" font-weight="700" font-size="27" transform="matrix(1 0 0 0.997736 56.6318 51)">Longitudinal <tspan x="44.1132" y="32.0726">data</tspan></text><path d="M0 13.8022C0 6.17946 6.17945-5.00162e-15 13.8022-6.66883e-15L195.722 0C203.345-1.66721e-15 209.525 6.17946 209.525 13.8022L209.525 69.0099C209.525 76.6327 203.345 82.8121 195.722 82.8121L13.8022 82.8121C6.17945 82.8121-3.33441e-15 76.6327-3.33441e-15 69.0099Z" fill="#D9F7FE" fill-rule="evenodd" transform="matrix(1.00227 0 -0 1 312 16.9615)"/><text font-family="Calibri,Calibri_MSFontService,sans-serif" font-weight="700" font-size="27" transform="matrix(1 0 0 0.997736 355.972 51)">Peers’ data <tspan x="26.2158" y="32.0726">access</tspan></text><path d="M0 13.8022C0 6.17946 6.17945-5.00162e-15 13.8022-6.66883e-15L195.722 0C203.345-1.66721e-15 209.525 6.17946 209.525 13.8022L209.525 69.0099C209.525 76.6327 203.345 82.8121 195.722 82.8121L13.8022 82.8121C6.17945 82.8121-3.33441e-15 76.6327-3.33441e-15 69.0099Z" fill="#FEF5D2" fill-rule="evenodd" transform="matrix(1.00227 0 -0 1 604 16.9615)"/><text font-family="Calibri,Calibri_MSFontService,sans-serif" font-weight="700" font-size="27" transform="matrix(1 0 0 0.997736 662.276 51)">Multiple <tspan x="1.42084" y="32.0726">features</tspan><tspan fill="#002E56" font-weight="400" font-size="19" x="-641.746" y="79.1793">Three observations per subject </tspan><tspan fill="#002E56" font-weight="400" font-size="19" x="-641.746" y="102.231">at minimum, measured at </tspan><tspan fill="#002E56" font-weight="400" font-size="19" x="-641.746" y="124.281">different time points.</tspan><tspan fill="#002E56" font-weight="400" font-size="19" x="-57.8332" y="79.1793">More than one feature/ </tspan><tspan fill="#002E56" font-weight="400" font-size="19" x="-57.8332" y="102.231">clinical marker are </tspan><tspan fill="#002E56" font-weight="400" font-size="19" x="-57.8332" y="124.281">preferable.</tspan><tspan fill="#002E56" font-weight="400" font-size="19" x="-349.842" y="79.1793">The data must also include </tspan><tspan fill="#002E56" font-weight="400" font-size="19" x="-349.842" y="102.231">other subjects’ longitudinal </tspan><tspan fill="#002E56" font-weight="400" font-size="19" x="-349.842" y="124.281">measurements.</tspan></text></g></svg>